<?xml version="1.0" encoding="utf-8"?>
<!DOCTYPE svg PUBLIC "-//W3C//DTD SVG 1.1//EN" "http://www.w3.org/Graphics/SVG/1.1/DTD/svg11.dtd">
<svg version="1.1" id="Capa_1" xmlns="http://www.w3.org/2000/svg" xmlns:xlink="http://www.w3.org/1999/xlink" x="0px" y="0px"
	 width="680.225px" height="285.891px" viewBox="0 0 680.225 285.891" enable-background="new 0 0 680.225 285.891"
	 xml:space="preserve">
<g>
	<path fill-rule="evenodd" clip-rule="evenodd" fill="#7E5F2A" d="M194.4,222.647h358.807v54.732H194.4
		C207.636,259.136,205.139,240.892,194.4,222.647L194.4,222.647z"/>
	<path fill="#7E5F2A" d="M208.798,250.013c0,19.815-16.063,35.878-35.876,35.878l0,0c-19.815,0-35.877-16.063-35.877-35.878l0,0
		c0-19.813,16.063-35.876,35.877-35.876l0,0C192.736,214.137,208.798,230.199,208.798,250.013L208.798,250.013L208.798,250.013z"/>
	<path fill="#FFFFFF" d="M173.509,265.647c-3.135,0-6.069-0.847-8.595-2.324c-0.239-0.134-0.468-0.276-0.692-0.424l-6.887,1.835
		l1.834-6.888c-1.739-2.675-2.749-5.861-2.749-9.287c0-9.421,7.667-17.089,17.088-17.089s17.09,7.668,17.09,17.089
		S182.93,265.647,173.509,265.647L173.509,265.647z M172.792,227.025c-11.089,0.359-20.247,9.339-20.801,20.42
		c-0.201,3.994,0.681,7.771,2.394,11.048l-2.407,10.78c-0.103,0.487,0.329,0.92,0.816,0.818l10.78-2.407h0.007
		c3.256,1.701,6.992,2.582,10.958,2.398c11.063-0.514,20.072-9.602,20.5-20.668C195.524,236.881,185.309,226.619,172.792,227.025
		L172.792,227.025z"/>
	<path fill="#FFFFFF" d="M183.644,256.082c-0.298,0.446-0.61,0.863-1.109,1.363c-1.096,1.095-2.615,1.647-4.157,1.49
		c-2.765-0.284-6.69-1.812-10.063-5.178c-3.375-3.375-4.903-7.301-5.178-10.063c-0.157-1.542,0.394-3.063,1.49-4.157
		c0.499-0.498,0.916-0.813,1.364-1.117c0.827-0.559,1.95-0.186,2.265,0.753l1.132,3.396c0.313,0.932,0.172,1.519-0.231,1.914
		l-0.903,0.91c-0.446,0.446-0.52,1.14-0.179,1.676c0.5,0.782,1.439,2.033,3.167,3.762c1.728,1.728,2.98,2.667,3.762,3.165
		c0.536,0.344,1.229,0.27,1.676-0.179l0.91-0.901c0.394-0.402,0.982-0.543,1.914-0.23l3.397,1.132
		C183.838,254.13,184.21,255.255,183.644,256.082L183.644,256.082z"/>
	<path fill="#7E5F2A" d="M95.944,133.436c0,26.495-21.478,47.973-47.972,47.973l0,0C21.478,181.409,0,159.931,0,133.436l0,0
		c0-26.495,21.478-47.973,47.972-47.973l0,0C74.466,85.463,95.944,106.941,95.944,133.436L95.944,133.436L95.944,133.436z"/>
	<path fill="#FFFFFF" d="M62.976,156.57c-0.949-7.382-2.924-14.297-5.362-20.541c6.432-1.236,12.698-0.188,17.651,1.345
		C74.117,145.405,69.495,152.323,62.976,156.57L62.976,156.57z M47.972,161.016c-6.553,0-12.576-2.294-17.309-6.124v-0.01
		c2.107-3.508,8.947-13.149,22.615-17.696c2.604,6.543,4.688,13.857,5.505,21.613C55.462,160.233,51.811,161.016,47.972,161.016
		L47.972,161.016z M20.393,133.436c0-0.31,0-0.628,0.022-0.937c0.75,0.022,1.611,0.031,2.56,0.031c6.266,0,16.559-0.618,26.388-3.96
		c0.75,1.456,1.478,2.979,2.184,4.556c-13.9,4.711-21.292,14.132-24.16,18.643C23.04,146.895,20.393,140.474,20.393,133.436
		L20.393,133.436z M36.267,108.471c1.942,2.316,6.465,8.087,10.988,16.149c-10.139,3.289-20.938,3.576-26.333,3.465
		C22.632,119.38,28.445,112.144,36.267,108.471L36.267,108.471z M47.972,105.856c7.137,0,13.646,2.714,18.544,7.181
		c-3.199,3.144-8.152,7.082-15.014,9.996c-4.159-7.514-8.373-13.149-10.833-16.185C42.997,106.198,45.445,105.856,47.972,105.856
		L47.972,105.856z M75.541,132.818c-5.549-1.589-12.455-2.526-19.637-0.937c-0.761-1.71-1.544-3.354-2.339-4.931
		c7.248-3.134,12.51-7.282,15.974-10.68C73.19,120.836,75.408,126.564,75.541,132.818L75.541,132.818z M47.972,101.443
		c-17.673,0-31.993,14.32-31.993,31.993s14.32,31.993,31.993,31.993s31.992-14.32,31.992-31.993S65.645,101.443,47.972,101.443
		L47.972,101.443z"/>
	<path fill="#7E5F2A" d="M680.225,133.435c0,26.496-21.477,47.973-47.971,47.973l0,0c-26.494,0-47.973-21.478-47.973-47.973l0,0
		c0-26.493,21.479-47.97,47.973-47.97l0,0C658.748,85.465,680.225,106.942,680.225,133.435L680.225,133.435L680.225,133.435z"/>
	<path fill="#FFFFFF" d="M641.762,145.795v-23.769c0,0,2.68,4.467,12.369,4.739c0.516,0.018,0.943-0.408,0.943-0.924v-6.72
		c0-0.5-0.4-0.896-0.898-0.925c-7.516-0.425-11.084-6.186-11.434-11.472c-0.033-0.49-0.461-0.861-0.953-0.861h-7.66
		c-0.51,0-0.924,0.413-0.924,0.925v37.785c0,4.105-3.137,7.676-7.236,7.869c-4.688,0.223-8.498-3.8-7.918-8.553
		c0.408-3.358,3.104-6.108,6.455-6.574c0.666-0.092,1.316-0.099,1.945-0.029c0.557,0.063,1.049-0.353,1.049-0.913v-6.734
		c0-0.48-0.363-0.894-0.842-0.923c-0.963-0.063-1.947-0.041-2.947,0.073c-7.391,0.838-13.355,6.818-14.174,14.21
		c-1.08,9.754,6.527,18.01,16.061,18.01c8.928,0,16.164-7.236,16.164-16.163V145.795L641.762,145.795z"/>
	<path fill="#7E5F2A" d="M212.801,133.436c0,26.496-21.478,47.972-47.972,47.972l0,0c-26.495,0-47.972-21.477-47.972-47.972l0,0
		c0-26.495,21.478-47.972,47.972-47.972l0,0C191.323,85.464,212.801,106.941,212.801,133.436L212.801,133.436L212.801,133.436z"/>
	<path fill="#FFFFFF" d="M179.042,129.713l-0.799,6.417c-0.134,1.076-1.042,1.879-2.119,1.879h-10.395v26.832
		c-1.097,0.102-2.208,0.152-3.331,0.152c-2.51,0-4.962-0.253-7.332-0.731v-26.252h-7.995c-0.733,0-1.333-0.601-1.333-1.336v-8.031
		c0-0.735,0.6-1.336,1.333-1.336h7.995v-12.044c0-7.39,5.967-13.383,13.327-13.383h9.328c0.733,0,1.333,0.601,1.333,1.336v8.031
		c0,0.735-0.599,1.336-1.333,1.336h-6.664c-2.942,0-5.329,2.397-5.329,5.356v9.368h11.193
		C178.208,127.306,179.201,128.436,179.042,129.713L179.042,129.713z"/>
	<path fill="#7E5F2A" d="M446.514,133.436c0,26.496-21.479,47.972-47.971,47.972l0,0c-26.496,0-47.973-21.477-47.973-47.972l0,0
		c0-26.495,21.477-47.972,47.973-47.972l0,0C425.035,85.464,446.514,106.941,446.514,133.436L446.514,133.436L446.514,133.436z"/>
	<path fill="#FFFFFF" d="M419.365,145.585c0,4.786-3.887,8.676-8.676,8.676h-24.295c-4.791,0-8.678-3.89-8.678-8.676v-24.297
		c0-4.791,3.887-8.676,8.678-8.676h24.295c4.789,0,8.676,3.885,8.676,8.676V145.585L419.365,145.585z M411.557,108.273h-26.031
		c-6.705,0-12.148,5.438-12.148,12.145v26.032c0,6.706,5.443,12.148,12.148,12.148h26.031c6.709,0,12.148-5.442,12.148-12.148
		v-26.032C423.705,113.712,418.266,108.273,411.557,108.273L411.557,108.273z"/>
	<path fill="#FFFFFF" d="M398.566,142.112c-4.781,0-8.678-3.896-8.678-8.676c0-4.784,3.896-8.68,8.678-8.68s8.678,3.896,8.678,8.68
		C407.244,138.216,403.348,142.112,398.566,142.112L398.566,142.112z M398.566,120.418c-7.186,0-13.014,5.833-13.014,13.018
		s5.828,13.014,13.014,13.014c7.184,0,13.016-5.83,13.016-13.014S405.75,120.418,398.566,120.418L398.566,120.418z"/>
	<path fill="#FFFFFF" d="M412.451,122.156c-1.438,0-2.604-1.169-2.604-2.604c0-1.438,1.166-2.604,2.604-2.604
		c1.434,0,2.602,1.166,2.602,2.604C415.053,120.987,413.885,122.156,412.451,122.156L412.451,122.156z"/>
	<path fill="#7E5F2A" d="M563.369,133.436c0,26.496-21.477,47.972-47.973,47.972l0,0c-26.494,0-47.971-21.477-47.971-47.972l0,0
		c0-26.495,21.477-47.972,47.971-47.972l0,0C541.893,85.464,563.369,106.941,563.369,133.436L563.369,133.436L563.369,133.436z"/>
	<path fill="#FFFFFF" d="M522.039,135.221l-11.498,5.743c-1.324,0.666-2.889-0.297-2.889-1.782v-11.493
		c0-1.481,1.564-2.448,2.889-1.785l11.498,5.75C523.508,132.386,523.508,134.486,522.039,135.221L522.039,135.221z M536.07,113.107
		h-41.346c-4.088,0-7.398,3.313-7.398,7.398v25.862c0,4.084,3.311,7.394,7.398,7.394h41.346c4.084,0,7.396-3.31,7.396-7.394v-25.862
		C543.467,116.421,540.154,113.107,536.07,113.107L536.07,113.107z"/>
	<path fill="#7E5F2A" d="M329.658,133.436c0,26.496-21.478,47.972-47.972,47.972l0,0c-26.495,0-47.973-21.477-47.973-47.972l0,0
		c0-26.495,21.478-47.972,47.973-47.972l0,0C308.18,85.464,329.658,106.941,329.658,133.436L329.658,133.436L329.658,133.436z"/>
	<path fill="#FFFFFF" d="M263.979,113.611h7.027l28.387,39.65h-7.027L263.979,113.611L263.979,113.611z M288.609,129.029
		l19.406-20.756h-7.37l-15.232,16.291l-11.664-16.291h-20.156l20.404,28.501l-20.404,21.824h7.37l16.231-17.359l12.429,17.359
		h20.156L288.609,129.029L288.609,129.029z"/>
	<path fill="#0A263E" d="M163.348,1.551c-16.896,0-27.586,11.245-27.586,25.537c0,14.513,10.691,25.647,27.365,25.647
		c4.93,0,10.192-1.053,13.516-2.659l-2.327-6.813c-3.767,1.717-7.534,2.438-11.189,2.438c-11.3,0-18.779-7.755-18.779-18.612
		c0-10.525,7.645-18.502,19-18.502c11.411,0,18.889,7.091,18.889,17.117c0,6.204-1.274,7.755-2.825,7.755
		c-1.218,0-2.16-0.72-2.16-3.047V14.568h-10.636v2.216c-1.606-1.772-3.877-2.714-6.813-2.714c-6.149,0-11.744,5.207-11.744,13.737
		c0,8.531,5.761,13.793,11.744,13.793c4.21,0,6.869-1.773,8.42-4.819c1.551,3.213,4.598,4.819,8.752,4.819
		c7.09,0,13.018-5.484,13.018-16.064C189.993,12.242,179.301,1.551,163.348,1.551L163.348,1.551z M162.85,32.904
		c-2.271,0-3.933-1.717-3.933-5.097c0-3.324,1.662-5.041,3.933-5.041c2.271,0,3.988,1.717,3.988,5.041
		C166.838,31.187,165.121,32.904,162.85,32.904L162.85,32.904z"/>
	<path fill="#0A263E" d="M210.655,41.656c7.368,0,12.907-3.379,14.901-8.974l-9.694-4.764c-1.274,2.825-3.103,3.988-5.263,3.988
		c-2.825,0-5.152-1.994-5.152-5.982c0-3.933,2.327-5.927,5.152-5.927c2.16,0,3.988,1.164,5.263,3.989l9.694-4.764
		c-1.994-5.595-7.534-8.974-14.901-8.974c-10.469,0-17.892,6.481-17.892,15.676C192.763,35.175,200.186,41.656,210.655,41.656
		L210.655,41.656z"/>
	<path fill="#0A263E" d="M244.168,41.656c10.304,0,17.615-6.536,17.615-15.732c0-9.195-7.312-15.676-17.615-15.676
		c-10.248,0-17.615,6.481-17.615,15.676C226.553,35.12,233.921,41.656,244.168,41.656L244.168,41.656z M244.168,31.907
		c-2.77,0-4.93-2.049-4.93-5.982s2.16-5.927,4.93-5.927c2.77,0,4.93,1.994,4.93,5.927S246.938,31.907,244.168,31.907L244.168,31.907
		z"/>
	<path fill="#0A263E" d="M285.936,10.248c-3.767,0-6.481,0.997-8.309,3.046v-2.493h-11.91v41.047h12.52V39.053
		c1.828,1.773,4.376,2.604,7.7,2.604c7.921,0,14.624-5.927,14.624-15.676C300.56,16.23,293.857,10.248,285.936,10.248
		L285.936,10.248z M282.944,31.907c-2.77,0-4.93-1.994-4.93-5.927c0-3.933,2.16-5.983,4.93-5.983c2.77,0,4.931,2.05,4.931,5.983
		C287.875,29.913,285.714,31.907,282.944,31.907L282.944,31.907z"/>
	<path fill="#0A263E" d="M325.543,10.802l-6.371,16.23l-6.259-16.23h-12.852l12.741,30.688c-0.665,0.775-1.606,1.219-3.102,1.219
		s-3.213-0.665-4.432-1.606l-4.154,8.586c2.049,1.662,5.872,2.714,9.195,2.714c6.426,0,11.3-2.382,14.624-10.691l12.463-30.91
		H325.543L325.543,10.802z"/>
	<path fill="#0A263E" d="M354.791,41.656c7.367,0,12.906-3.379,14.9-8.974l-9.693-4.764c-1.273,2.825-3.102,3.988-5.262,3.988
		c-2.826,0-5.152-1.994-5.152-5.982c0-3.933,2.326-5.927,5.152-5.927c2.16,0,3.988,1.164,5.262,3.989l9.693-4.764
		c-1.994-5.595-7.533-8.974-14.9-8.974c-10.469,0-17.892,6.481-17.892,15.676C336.899,35.175,344.322,41.656,354.791,41.656
		L354.791,41.656z"/>
	<path fill="#0A263E" d="M388.305,41.656c10.303,0,17.615-6.536,17.615-15.732c0-9.195-7.313-15.676-17.615-15.676
		c-10.248,0-17.615,6.481-17.615,15.676C370.689,35.12,378.057,41.656,388.305,41.656L388.305,41.656z M388.305,31.907
		c-2.77,0-4.93-2.049-4.93-5.982s2.16-5.927,4.93-5.927s4.93,1.994,4.93,5.927S391.074,31.907,388.305,31.907L388.305,31.907z"/>
	<path fill="#0A263E" d="M449.959,10.248c-4.154,0-7.699,1.662-10.137,4.597c-2.105-3.157-5.539-4.597-9.473-4.597
		c-3.324,0-6.314,1.107-8.586,3.379v-2.825h-11.91v30.301h12.52V26.312c0-4.043,1.717-5.54,3.932-5.54
		c2.105,0,3.379,1.44,3.379,5.208v15.123h12.52V26.312c0-4.043,1.719-5.54,3.934-5.54c1.994,0,3.379,1.44,3.379,5.208v15.123h12.52
		V23.819C462.035,14.292,456.828,10.248,449.959,10.248L449.959,10.248z"/>
	<path fill="#0A263E" d="M486.797,31.353c-0.832,0.554-1.828,0.831-2.826,0.831c-1.496,0-2.604-1.052-2.604-2.936v-7.645h6.205
		v-9.14h-6.205V3.988h-12.52v8.475h-4.154v9.14h4.154v7.755c0,8.364,4.875,12.297,13.24,12.297c2.936,0,5.76-0.499,7.699-1.606
		L486.797,31.353L486.797,31.353z"/>
	<polygon fill="#0A263E" points="492.945,41.103 505.465,41.103 505.465,0 492.945,0 492.945,41.103 	"/>
	<polygon fill="#0A263E" points="544.461,41.103 533.051,25.537 544.186,10.802 531.057,10.802 526.514,17.228 522.193,10.802 
		508.068,10.802 519.201,26.09 507.736,41.103 521.307,41.103 525.961,34.621 530.115,41.103 544.461,41.103 	"/>
	<path fill="#FFFFFF" d="M247.531,260.909l8.865-8.534c3.936-3.77,4.764-6.297,4.764-9.114c0-4.971-3.894-8.078-9.942-8.078
		c-4.516,0-8.369,1.616-10.605,4.392l2.817,2.444c1.781-2.154,4.309-3.148,7.416-3.148c4.06,0,6.172,1.822,6.172,4.806
		c0,1.822-0.58,3.646-3.646,6.628l-11.807,11.393v2.817h20.838v-3.604H247.531L247.531,260.909z"/>
	<polygon fill="#FFFFFF" points="290.243,253.825 284.733,253.825 284.733,247.528 280.839,247.528 280.839,253.825 
		269.694,253.825 283.904,235.514 279.43,235.514 264.599,254.488 264.599,257.388 280.714,257.388 280.714,264.514 
		284.733,264.514 284.733,257.388 290.243,257.388 290.243,253.825 	"/>
	<path fill="#FFFFFF" d="M305.24,246.907c-3.604,0-6.67,1.325-8.327,3.812c-0.042-0.374-0.042-0.705-0.042-1.036
		c0-7.25,3.77-10.938,9.653-10.938c2.071,0,4.06,0.373,5.551,1.367l1.574-3.231c-1.864-1.159-4.474-1.698-7.208-1.698
		c-8.12,0-13.712,5.303-13.712,15.204c0,9.238,4.391,14.458,12.18,14.458c5.758,0,10.274-3.563,10.274-9.155
		C315.182,250.345,310.998,246.907,305.24,246.907L305.24,246.907z M304.742,261.489c-4.474,0-6.877-2.609-6.877-5.593
		c0-3.189,2.734-5.634,6.67-5.634c4.06,0,6.628,2.195,6.628,5.593C311.164,259.294,308.512,261.489,304.742,261.489L304.742,261.489
		z"/>
	<polygon fill="#FFFFFF" points="327.776,235.514 327.776,239.118 334.322,239.118 334.322,264.514 338.423,264.514 
		338.423,235.514 327.776,235.514 	"/>
	<polygon fill="#FFFFFF" points="344.016,235.514 344.016,244.297 347.992,244.297 347.992,239.118 361.25,239.118 349.775,264.514 
		354.166,264.514 365.891,238.331 365.891,235.514 344.016,235.514 	"/>
	<path fill="#FFFFFF" d="M377.076,247.072h-3.232l0.787-7.954h12.885v-3.604H371.15l-1.531,15.163h6.586
		c6.711,0,8.783,2.03,8.783,5.303c0,3.148-2.486,5.179-6.877,5.179c-3.521,0-6.754-1.284-8.699-3.107l-1.906,3.273
		c2.484,2.195,6.545,3.521,10.646,3.521c7.416,0,10.979-4.019,10.979-9.031C389.131,250.677,385.734,247.072,377.076,247.072
		L377.076,247.072z"/>
	<polygon fill="#FFFFFF" points="428.943,253.825 423.434,253.825 423.434,247.528 419.539,247.528 419.539,253.825 
		408.395,253.825 422.605,235.514 418.131,235.514 403.299,254.488 403.299,257.388 419.414,257.388 419.414,264.514 
		423.434,264.514 423.434,257.388 428.943,257.388 428.943,253.825 	"/>
	<path fill="#FFFFFF" d="M449.574,249.31c2.65-1.243,4.102-3.396,4.102-6.256c0-4.847-4.227-7.871-10.523-7.871
		c-6.256,0-10.439,3.024-10.439,7.871c0,2.859,1.408,5.013,4.061,6.256c-3.273,1.243-5.096,3.688-5.096,7.001
		c0,5.262,4.432,8.534,11.475,8.534c7.084,0,11.559-3.272,11.559-8.534C454.711,252.997,452.889,250.594,449.574,249.31
		L449.574,249.31z M443.152,238.538c3.895,0,6.463,1.782,6.463,4.682c0,2.858-2.443,4.64-6.463,4.64
		c-3.977,0-6.338-1.781-6.338-4.64C436.814,240.32,439.258,238.538,443.152,238.538L443.152,238.538z M443.152,261.489
		c-4.598,0-7.332-2.03-7.332-5.303c0-3.189,2.734-5.179,7.332-5.179c4.6,0,7.416,1.989,7.416,5.179
		C450.568,259.459,447.752,261.489,443.152,261.489L443.152,261.489z"/>
	<path fill="#FFFFFF" d="M470.371,264.845c6.752,0,11.807-5.386,11.807-14.831s-5.055-14.831-11.807-14.831
		c-6.795,0-11.85,5.386-11.85,14.831S463.576,264.845,470.371,264.845L470.371,264.845z M470.371,261.158
		c-4.557,0-7.705-3.729-7.705-11.145c0-7.415,3.148-11.144,7.705-11.144c4.516,0,7.664,3.729,7.664,11.144
		C478.035,257.43,474.887,261.158,470.371,261.158L470.371,261.158z"/>
	<polygon fill="#FFFFFF" points="485.119,235.514 485.119,244.297 489.096,244.297 489.096,239.118 502.354,239.118 
		490.877,264.514 495.27,264.514 506.992,238.331 506.992,235.514 485.119,235.514 	"/>
</g>
</svg>
